<svg xmlns="http://www.w3.org/2000/svg" xmlns:xlink="http://www.w3.org/1999/xlink" viewBox="0 0 401 264" fill="#fff" fill-rule="evenodd" stroke="#000" stroke-linecap="round" stroke-linejoin="round" font-family="Roboto" font-size="14" text-anchor="middle"><use xlink:href="#D" x=".5" y=".5"/><defs><linearGradient id="A" x1="0%" y1="50%" x2="100%" y2="50%"><stop offset="0%" stop-color="#97ff28"/><stop offset="25%" stop-color="#e3ff47"/><stop offset="50%" stop-color="#fff423"/><stop offset="75%" stop-color="#ffbf33"/><stop offset="99%" stop-color="#eb5a00"/></linearGradient><filter x="-3.25%" y="-6.5%" width="107.25%" height="114.5%" id="B"><feGaussianBlur in="SourceAlpha" stdDeviation="5"/><feOffset dx="3" dy="3"/><feComposite in2="SourceAlpha" operator="arithmetic" k2="-1" k3="1" result="C"/><feFlood flood-color="#000" flood-opacity=".5"/><feComposite in2="C" operator="in" result="D"/><feMerge><feMergeNode in="SourceGraphic"/><feMergeNode in="D"/></feMerge></filter><filter x="-4.705882352941177%" y="-16%" width="110.58823529411765%" height="134%" id="C"><feGaussianBlur in="SourceAlpha" stdDeviation="3"/><feOffset dx="2" dy="1" result="B"/><feFlood flood-color="#000" flood-opacity=".5"/><feComposite in2="B" operator="in" result="C"/><feMerge><feMergeNode in="C"/><feMergeNode in="SourceGraphic"/></feMerge></filter></defs><symbol id="D" overflow="visible"><path d="M 66.6667 200 L 0 200 C 0 89.2 89.2 0 200 0 C 310.8 0 400 89.2 400 200 L 333.3333 200 C 333.3333 126.1333 273.8667 66.6667 200 66.6667 C 126.1333 66.6667 66.6667 126.1333 66.6667 200 Z" fill="url(#A)" stroke="url(#A)" filter="url(#B)"/><defs/><g transform="matrix(.790085 .612997 -.612997 .790085 98.787367 62.330798)"><path d="M136.531 1.46L0 25l136.531 23.54L145 50c13.85 0 25-11.15 25-25S158.85 0 145 0z" fill="#263238" stroke="none" filter="url(#C)"/><defs/></g></symbol></svg>